HIERARCHY
ROOT hip
{
  OFFSET 0 0 0
  CHANNELS 6 Xposition Yposition Zposition Zrotation Yrotation Xrotation
  JOINT abdomen
  {
    OFFSET 0 20.6881 -0.73152
    CHANNELS 3 Zrotation Xrotation Yrotation
    JOINT chest
    {
      OFFSET 0 11.7043 -0.48768
      CHANNELS 3 Zrotation Xrotation Yrotation
      JOINT neck
      {
        OFFSET 0 22.1894 -2.19456
        CHANNELS 3 Zrotation Xrotation Yrotation
        JOINT head
        {
          OFFSET -0.24384 7.07133 1.2192
          CHANNELS 3 Zrotation Xrotation Yrotation
          JOINT leftEye
          {
            OFFSET 4.14528 8.04674 8.04672
            CHANNELS 3 Zrotation Xrotation Yrotation
            End Site
            {
              OFFSET 1 0 0
            }
          }
          JOINT rightEye
          {
            OFFSET -3.6576 8.04674 8.04672
            CHANNELS 3 Zrotation Xrotation Yrotation
            End Site
            {
              OFFSET 1 0 0
            }
          }
        }
      }
      JOINT rCollar
      {
        OFFSET -2.68224 19.2634 -4.8768
        CHANNELS 3 Zrotation Xrotation Yrotation
        JOINT rShldr
        {
          OFFSET -8.77824 -1.95073 1.46304
          CHANNELS 3 Zrotation Xrotation Yrotation
          JOINT rForeArm
          {
            OFFSET -28.1742 -1.7115 0.48768
            CHANNELS 3 Zrotation Xrotation Yrotation
            JOINT rHand
            {
              OFFSET -22.5879 0.773209 7.07136
              CHANNELS 3 Zrotation Xrotation Yrotation
              JOINT rThumb1
              {
                OFFSET -1.2192 -0.487915 3.41376
                CHANNELS 3 Zrotation Xrotation Yrotation
                JOINT rThumb2
                {
                  OFFSET -3.37035 -0.52449 3.41376
                  CHANNELS 3 Zrotation Xrotation Yrotation
                  End Site
                  {
                    OFFSET -1.78271 -1.18214 1.43049
                  }
                }
              }
              JOINT rIndex1
              {
                OFFSET -7.75947 0.938293 5.60832
                CHANNELS 3 Zrotation Xrotation Yrotation
                JOINT rIndex2
                {
                  OFFSET -2.54057 -0.884171 1.56538
                  CHANNELS 3 Zrotation Xrotation Yrotation
                  End Site
                  {
                    OFFSET -1.62519 -0.234802 1.16502
                  }
                }
              }
              JOINT rMid1
              {
                OFFSET -8.24714 1.18213 3.41376
                CHANNELS 3 Zrotation Xrotation Yrotation
                JOINT rMid2
                {
                  OFFSET -3.10165 -0.590103 1.0647
                  CHANNELS 3 Zrotation Xrotation Yrotation
                  End Site
                  {
                    OFFSET -2.48547 -0.328903 0.83742
                  }
                }
              }
              JOINT rRing1
              {
                OFFSET -8.82822 0.546677 1.51678
                CHANNELS 3 Zrotation Xrotation Yrotation
                JOINT rRing2
                {
                  OFFSET -2.60934 -0.819778 -0.0198488
                  CHANNELS 3 Zrotation Xrotation Yrotation
                  End Site
                  {
                    OFFSET -2.33842 -0.294052 0.168128
                  }
                }
              }
              JOINT rPinky1
              {
                OFFSET -8.27202 -0.0477905 -0.4584
                CHANNELS 3 Zrotation Xrotation Yrotation
                JOINT rPinky2
                {
                  OFFSET -1.82734 -0.647385 -0.700984
                  CHANNELS 3 Zrotation Xrotation Yrotation
                  End Site
                  {
                    OFFSET -1.69225 -0.51767 -0.607171
                  }
                }
              }
            }
          }
        }
      }
      JOINT lCollar
      {
        OFFSET 2.68224 19.2634 -4.8768
        CHANNELS 3 Zrotation Xrotation Yrotation
        JOINT lShldr
        {
          OFFSET 8.77824 -1.95073 1.46304
          CHANNELS 3 Zrotation Xrotation Yrotation
          JOINT lForeArm
          {
            OFFSET 28.1742 -1.7115 0.48768
            CHANNELS 3 Zrotation Xrotation Yrotation
            JOINT lHand
            {
              OFFSET 22.5879 0.773209 7.07136
              CHANNELS 3 Zrotation Xrotation Yrotation
              JOINT lThumb1
              {
                OFFSET 1.2192 -0.487915 3.41376
                CHANNELS 3 Zrotation Xrotation Yrotation
                JOINT lThumb2
                {
                  OFFSET 3.37035 -0.52449 3.41376
                  CHANNELS 3 Zrotation Xrotation Yrotation
                  End Site
                  {
                    OFFSET 1.78271 -1.18214 1.43049
                  }
                }
              }
              JOINT lIndex1
              {
                OFFSET 7.75947 0.938293 5.60832
                CHANNELS 3 Zrotation Xrotation Yrotation
                JOINT lIndex2
                {
                  OFFSET 2.54057 -0.884171 1.56538
                  CHANNELS 3 Zrotation Xrotation Yrotation
                  End Site
                  {
                    OFFSET 1.62519 -0.234802 1.16502
                  }
                }
              }
              JOINT lMid1
              {
                OFFSET 8.24714 1.18213 3.41376
                CHANNELS 3 Zrotation Xrotation Yrotation
                JOINT lMid2
                {
                  OFFSET 3.10165 -0.590103 1.0647
                  CHANNELS 3 Zrotation Xrotation Yrotation
                  End Site
                  {
                    OFFSET 2.48547 -0.328903 0.83742
                  }
                }
              }
              JOINT lRing1
              {
                OFFSET 8.82822 0.546677 1.51678
                CHANNELS 3 Zrotation Xrotation Yrotation
                JOINT lRing2
                {
                  OFFSET 2.60934 -0.819778 -0.0198488
                  CHANNELS 3 Zrotation Xrotation Yrotation
                  End Site
                  {
                    OFFSET 2.33842 -0.294052 0.168128
                  }
                }
              }
              JOINT lPinky1
              {
                OFFSET 8.27202 -0.0477905 -0.4584
                CHANNELS 3 Zrotation Xrotation Yrotation
                JOINT lPinky2
                {
                  OFFSET 1.82734 -0.647385 -0.700984
                  CHANNELS 3 Zrotation Xrotation Yrotation
                  End Site
                  {
                    OFFSET 1.69225 -0.51767 -0.607171
                  }
                }
              }
            }
          }
        }
      }
    }
  }
  JOINT rButtock
  {
    OFFSET -8.77824 4.35084 1.2192
    CHANNELS 3 Zrotation Xrotation Yrotation
    JOINT rThigh
    {
      OFFSET 0 -1.70687 -2.19456
      CHANNELS 3 Zrotation Xrotation Yrotation
      JOINT rShin
      {
        OFFSET 0 -36.8199 0.73152
        CHANNELS 3 Zrotation Xrotation Yrotation
        JOINT rFoot
        {
          OFFSET 0.73152 -45.1104 -5.12064
          CHANNELS 3 Zrotation Xrotation Yrotation
          End Site
          {
            OFFSET -1.1221 -3.69964 12.103
          }
        }
      }
    }
  }
  JOINT lButtock
  {
    OFFSET 8.77824 4.35084 1.2192
    CHANNELS 3 Zrotation Xrotation Yrotation
    JOINT lThigh
    {
      OFFSET 0 -1.70687 -2.19456
      CHANNELS 3 Zrotation Xrotation Yrotation
      JOINT lShin
      {
        OFFSET 0 -36.8199 0.73152
        CHANNELS 3 Zrotation Xrotation Yrotation
        JOINT lFoot
        {
          OFFSET -0.73152 -45.1104 -5.12064
          CHANNELS 3 Zrotation Xrotation Yrotation
          End Site
          {
            OFFSET 1.1221 -3.69964 12.103
          }
        }
      }
    }
  }
}
MOTION
Frames:	8
Frame Time:	0.00833333
253.913 84.7658 39.7839 0.0 0.0 0.0 -0.385196 -0.00168814 -0.0109958 -0.106234 -0.00256713 -0.0184048 -4.8117e-15 0.0 -4.34842e-17 -1.44336e-14 3.18055e-15 -1.27346e-16 -0.0 0.0 0.0 -0.0 0.0 0.0 -2.28741e-15 1.94126e-18 1.98785e-16 -4.8951e-14 3.78933e-16 0.0 -8.60589e-13 2.62793e-13 -1.90833e-14 -9.89023e-12 -2.4458e-13 -9.85972e-14 -2.3326e-11 3.18554e-14 -2.44903e-13 -4.02984e-11 5.40694e-14 -4.14267e-13 -2.33238e-11 3.10104e-14 -2.48083e-13 7.73091 5.47488 0.417314 -2.33261e-11 3.16068e-14 -2.35361e-13 2.90554 0.965183 0.102902 -2.33226e-11 3.18055e-14 -2.36156e-13 10.2786 0.731801 0.0259123 -2.33355e-11 3.45885e-14 -2.25819e-13 2.22167 -0.733487 -0.20892 -2.48358e-15 2.13538e-18 -1.98785e-16 -5.08673e-14 4.65902e-16 -1.19271e-15 -8.66801e-13 -2.54047e-13 1.90833e-14 -9.88718e-12 2.78771e-13 -1.145e-13 -2.33253e-11 4.5775e-14 -2.29e-13 -4.02666e-11 7.63333e-14 -3.99955e-13 -2.33294e-11 4.65156e-14 -2.16278e-13 -7.73091 5.47488 -0.417314 -2.3324e-11 4.54223e-14 -2.3218e-13 -2.90554 0.965183 -0.102902 -2.33256e-11 4.52235e-14 -2.33771e-13 -10.2786 0.731801 -0.0259123 -2.33176e-11 4.81059e-14 -2.48083e-13 -2.22167 -0.733487 0.20892 -2.03217e-16 0.0 -3.88251e-19 0.221634 -2.58356 -0.0280806 -0.00748946 -0.872628 -0.065139 -0.513094 3.45577 0.129345 2.03217e-16 0.0 3.88251e-19 -0.807791 -4.07084 0.0653918 0.00325587 1.82138 0.024433 0.517728 2.24911 -0.105183
249.783 83.6714 32.6208 -85.0751 -83.4478 92.1078 1.36801 -2.10906 0.146884 -0.057216 -0.392355 -0.0338767 -1.53313 -1.00117 -1.375 2.77506 -2.9622 -1.9504 -0.0 0.0 0.0 -0.0 0.0 0.0 -1.1207e-14 -5.85088e-12 2.16287e-14 20.8029 3.75295 1.01341 -3.15209 -1.27029 5.08518 0.033404 4.05656 0.564964 3.78076e-10 -2.0178e-10 5.98925e-10 6.61187e-10 -3.42932e-10 1.02904e-09 3.78077e-10 -2.01781e-10 5.98922e-10 7.73091 5.47488 0.417314 3.78075e-10 -2.01781e-10 5.98932e-10 2.90554 0.965183 0.102902 3.78078e-10 -2.01782e-10 5.98933e-10 10.2786 0.731801 0.0259123 3.78069e-10 -2.01778e-10 5.98943e-10 2.22167 -0.733487 -0.20892 -1.13582e-14 -5.85087e-12 2.12117e-14 -22.8005 4.16095 -0.839969 3.10713 -1.24529 -5.0189 -0.166002 9.06068 -1.21668 3.04971e-10 2.92403e-12 4.45813e-10 5.37848e-10 4.94623e-13 7.6115e-10 3.04968e-10 2.92529e-12 4.45824e-10 -7.73091 5.47488 -0.417314 3.04972e-10 2.92536e-12 4.45812e-10 -2.90554 0.965183 -0.102902 3.04969e-10 2.92455e-12 4.45811e-10 -10.2786 0.731801 -0.0259123 3.04977e-10 2.92716e-12 4.45798e-10 -2.22167 -0.733487 0.20892 -2.03217e-16 0.0 -3.88251e-19 2.15224 -4.97102 0.646913 -0.00612395 2.64845 0.000640779 -0.651067 1.44742 -2.92543 2.03217e-16 0.0 3.88251e-19 1.77664 -5.92828 -1.69666 -0.0010221 4.72233 -0.0280729 0.543419 -0.0988065 1.1539
249.791 83.6691 32.6166 -85.5275 -83.4487 92.5862 3.23434 -4.33809 0.310466 -0.00734096 -0.804987 -0.0514136 -3.19592 -2.07667 -2.83209 5.45963 -6.05228 -4.04074 -0.0 0.0 0.0 -0.0 0.0 0.0 -2.10725e-14 -1.21698e-11 4.47638e-14 42.6493 7.71283 2.10087 -6.23947 -2.57939 10.4678 -0.0191548 8.35138 1.1728 8.2927e-10 -3.97221e-10 1.19738e-09 1.44882e-09 -6.74505e-10 2.05655e-09 8.29271e-10 -3.97221e-10 1.19737e-09 7.73091 5.47488 0.417314 8.29268e-10 -3.97221e-10 1.19738e-09 2.90554 0.965183 0.102902 8.29271e-10 -3.97224e-10 1.19738e-09 10.2786 0.731801 0.0259123 8.29265e-10 -3.97219e-10 1.19739e-09 2.22167 -0.733487 -0.20892 -2.1177e-14 -1.21698e-11 4.43228e-14 -46.7705 8.56557 -1.7395 6.15853 -2.53161 -10.3369 0.0976822 18.6048 -2.60552 6.14268e-10 2.21483e-11 9.35257e-10 1.08423e-09 2.89554e-11 1.59821e-09 6.14265e-10 2.21503e-11 9.35267e-10 -7.73091 5.47488 -0.417314 6.14267e-10 2.21516e-11 9.35258e-10 -2.90554 0.965183 -0.102902 6.14264e-10 2.21501e-11 9.35258e-10 -10.2786 0.731801 -0.0259123 6.14271e-10 2.21524e-11 9.35248e-10 -2.22167 -0.733487 0.20892 -2.03217e-16 0.0 -3.88251e-19 4.25173 -7.49365 1.36207 -0.0134824 6.36914 0.0705608 -1.0294 -0.667093 -6.15521 2.03217e-16 0.0 3.88251e-19 4.3804 -7.88531 -3.57588 0.000265555 7.78897 -0.0841018 0.682305 -2.57498 2.48396
249.795 83.6689 32.6188 -86.2945 -83.4977 93.3609 4.90946 -6.32362 0.465174 0.0401877 -1.17193 -0.0648317 -4.74356 -2.99659 -4.13002 7.71514 -8.84516 -5.91396 -0.0 0.0 0.0 -0.0 0.0 0.0 -2.90462e-14 -1.75526e-11 6.44885e-14 62.0041 11.2446 3.09315 -8.78752 -3.69097 15.2842 -0.14444 12.1649 1.72949 1.18088e-09 -6.05405e-10 1.79727e-09 2.06416e-09 -1.0289e-09 3.08796e-09 1.18088e-09 -6.05405e-10 1.79726e-09 7.73091 5.47488 0.417314 1.18088e-09 -6.05405e-10 1.79727e-09 2.90554 0.965183 0.102902 1.18088e-09 -6.0541e-10 1.79727e-09 10.2786 0.731801 0.0259123 1.18088e-09 -6.05403e-10 1.79728e-09 2.22167 -0.733487 -0.20892 -2.91074e-14 -1.75526e-11 6.40327e-14 -68.028 12.472 -2.57405 8.67417 -3.62138 -15.084 0.776747 27.1299 -4.05081 9.61565e-10 8.68055e-12 1.3379e-09 1.69408e-09 1.3312e-12 2.28425e-09 9.61564e-10 8.68285e-12 1.3379e-09 -7.73091 5.47488 -0.417314 9.61565e-10 8.68524e-12 1.3379e-09 -2.90554 0.965183 -0.102902 9.6156e-10 8.6832e-12 1.3379e-09 -10.2786 0.731801 -0.0259123 9.61566e-10 8.68526e-12 1.33789e-09 -2.22167 -0.733487 0.20892 -2.03217e-16 0.0 -3.88251e-19 6.18443 -9.74094 2.01866 -0.0278604 9.69059 0.134097 -1.56719 -2.53184 -9.04059 2.03217e-16 0.0 3.88251e-19 6.59882 -9.61091 -5.26734 0.00660161 10.5242 -0.135046 0.904868 -4.78484 3.68476
249.835 83.6569 32.6395 -85.4086 -83.574 92.5561 6.08315 -7.70056 0.595419 0.0823744 -1.42464 -0.067941 -5.89687 -3.5345 -5.02478 9.3258 -10.9346 -7.18674 -0.0 0.0 0.0 -0.0 0.0 0.0 -3.22903e-14 -2.0595e-11 7.56873e-14 75.418 13.7198 3.79718 -10.4552 -4.42269 18.658 -0.275633 14.7797 2.12497 1.28353e-09 -8.45449e-10 2.40074e-09 2.24877e-09 -1.44036e-09 4.1291e-09 1.28353e-09 -8.45449e-10 2.40073e-09 7.73091 5.47488 0.417314 1.28352e-09 -8.45449e-10 2.40074e-09 2.90554 0.965183 0.102902 1.28353e-09 -8.45455e-10 2.40074e-09 10.2786 0.731801 0.0259123 1.28352e-09 -8.45447e-10 2.40075e-09 2.22167 -0.733487 -0.20892 -3.23168e-14 -2.0595e-11 7.524e-14 -82.7691 15.1431 -3.19453 10.3063 -4.32967 -18.3772 1.56921 33.1557 -5.26787 1.40387e-09 -8.65174e-11 1.52352e-09 2.46257e-09 -1.66505e-10 2.59277e-09 1.40387e-09 -8.65155e-11 1.52353e-09 -7.73091 5.47488 -0.417314 1.40387e-09 -8.65127e-11 1.52353e-09 -2.90554 0.965183 -0.102902 1.40386e-09 -8.65149e-11 1.52353e-09 -10.2786 0.731801 -0.0259123 1.40387e-09 -8.65131e-11 1.52352e-09 -2.22167 -0.733487 0.20892 -2.03217e-16 0.0 -3.88251e-19 7.58077 -11.3042 2.51025 -0.0424894 12.014 0.179607 -2.05252 -3.81552 -11.0499 2.03217e-16 0.0 3.88251e-19 8.10097 -10.7861 -6.45064 0.0140858 12.4309 -0.171492 1.11975 -6.33899 4.54745
249.745 83.606 32.6068 -88.0018 -83.5145 95.0907 6.54625 -8.23005 0.694736 0.116826 -1.52859 -0.0554409 -6.46696 -3.48597 -5.3459 10.2771 -12.1257 -7.55783 -0.0 0.0 0.0 -0.0 0.0 0.0 -2.8144e-14 -2.04422e-11 7.53281e-14 80.6521 14.7361 4.0399 -11.0913 -4.70172 19.996 -0.333161 15.7113 2.26948 9.44275e-10 -1.2391e-09 3.23981e-09 1.67159e-09 -2.11982e-09 5.58349e-09 9.44279e-10 -1.2391e-09 3.2398e-09 7.73091 5.47488 0.417314 9.44274e-10 -1.23911e-09 3.2398e-09 2.90554 0.965183 0.102902 9.44277e-10 -1.23911e-09 3.23981e-09 10.2786 0.731801 0.0259123 9.44274e-10 -1.2391e-09 3.23982e-09 2.22167 -0.733487 -0.20892 -2.81411e-14 -2.0443e-11 7.49337e-14 -88.5163 16.0829 -3.46008 10.8958 -4.57911 -19.6175 1.99724 35.7453 -5.85712 2.19272e-09 -3.80219e-10 1.33102e-09 3.81985e-09 -6.76342e-10 2.23857e-09 2.19272e-09 -3.80219e-10 1.33102e-09 -7.73091 5.47488 -0.417314 2.19272e-09 -3.80216e-10 1.33102e-09 -2.90554 0.965183 -0.102902 2.19271e-09 -3.80218e-10 1.33102e-09 -10.2786 0.731801 -0.0259123 2.19272e-09 -3.80217e-10 1.33101e-09 -2.22167 -0.733487 0.20892 -2.03217e-16 0.0 -3.88251e-19 8.17833 -11.9106 2.76521 -0.0494741 12.9389 0.198212 -2.26606 -4.32163 -11.8179 2.03217e-16 0.0 3.88251e-19 8.71762 -11.2063 -6.89912 0.0179724 13.1778 -0.186444 1.22726 -6.98488 4.92568
249.723 83.5996 32.5985 -88.5914 -83.4986 95.6879 6.49831 -8.15405 0.77112 0.145788 -1.52575 -0.0318459 -6.61235 -3.02227 -5.25717 10.8079 -12.6806 -7.27199 -0.0 0.0 0.0 -0.0 0.0 0.0 -1.87553e-14 -1.80032e-11 6.66954e-14 80.075 14.7127 3.94341 -11.0357 -4.68019 19.8751 -0.319365 15.4418 2.22808 2.9383e-10 -1.73729e-09 4.23618e-09 5.57855e-10 -2.98175e-09 7.31401e-09 2.93837e-10 -1.73729e-09 4.23616e-09 7.73091 5.47488 0.417314 2.93829e-10 -1.73729e-09 4.23617e-09 2.90554 0.965183 0.102902 2.93833e-10 -1.7373e-09 4.23617e-09 10.2786 0.731801 0.0259123 2.93827e-10 -1.73729e-09 4.23619e-09 2.22167 -0.733487 -0.20892 -1.87271e-14 -1.80052e-11 6.63848e-14 -87.8696 15.7889 -3.46193 10.7828 -4.52188 -19.3872 2.00375 35.8935 -5.8842 3.21894e-09 -8.11705e-10 8.71959e-10 5.58021e-09 -1.42353e-09 1.41738e-09 3.21894e-09 -8.11707e-10 8.71963e-10 -7.73091 5.47488 -0.417314 3.21895e-09 -8.11706e-10 8.71957e-10 -2.90554 0.965183 -0.102902 3.21893e-09 -8.11707e-10 8.7196e-10 -10.2786 0.731801 -0.0259123 3.21894e-09 -8.11706e-10 8.71951e-10 -2.22167 -0.733487 0.20892 -2.03217e-16 0.0 -3.88251e-19 8.19094 -11.8345 2.84728 -0.049086 12.8649 0.197073 -2.23968 -4.28314 -11.6936 2.03217e-16 0.0 3.88251e-19 8.72642 -11.0921 -6.81694 0.018027 13.0963 -0.185685 1.23413 -6.98441 4.95364
249.707 83.5936 32.5879 -89.2079 -83.4705 96.3178 6.24144 -7.82874 0.830231 0.173246 -1.46235 -0.00568692 -6.56786 -2.48228 -5.01437 11.1006 -12.8879 -6.75333 -0.0 0.0 0.0 -0.0 0.0 0.0 -8.5003e-15 -1.45196e-11 5.41475e-14 77.166 14.2561 3.74604 -10.7028 -4.53796 19.1685 -0.278985 14.7053 2.11487 -3.31734e-10 -2.10288e-09 4.92654e-09 -5.16506e-10 -3.61568e-09 8.51563e-09 -3.31725e-10 -2.10288e-09 4.92653e-09 7.73091 5.47488 0.417314 -3.31735e-10 -2.10288e-09 4.92654e-09 2.90554 0.965183 0.102902 -3.31729e-10 -2.10288e-09 4.92654e-09 10.2786 0.731801 0.0259123 -3.31739e-10 -2.10288e-09 4.92655e-09 2.22167 -0.733487 -0.20892 -8.45923e-15 -1.45219e-11 5.39145e-14 -84.6579 15.016 -3.38726 10.3882 -4.34177 -18.5706 1.82623 35.0291 -5.67045 3.99843e-09 -1.16377e-09 4.2518e-10 6.91516e-09 -2.03253e-09 6.24096e-10 3.99843e-09 -1.16378e-09 4.25183e-10 -7.73091 5.47488 -0.417314 3.99845e-09 -1.16378e-09 4.25175e-10 -2.90554 0.965183 -0.102902 3.99843e-09 -1.16378e-09 4.25179e-10 -10.2786 0.731801 -0.0259123 3.99844e-09 -1.16378e-09 4.25168e-10 -2.22167 -0.733487 0.20892 -2.03217e-16 0.0 -3.88251e-19 7.95766 -11.4891 2.84991 -0.0458572 12.3934 0.18801 -2.11699 -4.02629 -11.2087 2.03217e-16 0.0 3.88251e-19 8.48004 -10.7675 -6.52421 0.0164818 12.6832 -0.178616 1.19831 -6.72242 4.83864
